<?xml version="1.0" encoding="UTF-8"?>
<svg version="1.1" viewBox="0 0 38 65" xmlns="http://www.w3.org/2000/svg" xmlns:cc="http://creativecommons.org/ns#" xmlns:dc="http://purl.org/dc/elements/1.1/" xmlns:osb="http://www.openswatchbook.org/uri/2009/osb" xmlns:rdf="http://www.w3.org/1999/02/22-rdf-syntax-ns#" xmlns:xlink="http://www.w3.org/1999/xlink">
<metadata>
<rdf:RDF>
<cc:Work rdf:about="">
<dc:format>image/svg+xml</dc:format>
<dc:type rdf:resource="http://purl.org/dc/dcmitype/StillImage"/>
<dc:title/>
</cc:Work>
</rdf:RDF>
</metadata>
<defs>
<linearGradient id="a">
<stop stop-color="#fff" offset="0"/>
<stop stop-color="#617583" offset="1"/>
</linearGradient>
<radialGradient id="f" cx="1232" cy="1025.5" r="220" gradientTransform="matrix(.033969 .0091019 -.0094802 .035381 -9.4086 -32.239)" gradientUnits="userSpaceOnUse" xlink:href="#a"/>
<radialGradient id="e" cx="935.84" cy="1101.9" r="129.5" gradientTransform="matrix(.035195 .0094305 -.0094305 .035195 -8.2077 -31.604)" gradientUnits="userSpaceOnUse" xlink:href="#a"/>
<radialGradient id="d" cx="1721.5" cy="417.72" r="202.47" gradientTransform="matrix(-.066581 .038166 -.010876 -.018973 150.82 -56.854)" gradientUnits="userSpaceOnUse" xlink:href="#a"/>
<radialGradient id="c" cx="569.28" cy="567.11" r="221.2" gradientTransform="matrix(.043943 .013043 -.0036052 .012146 -17.702 -11.218)" gradientUnits="userSpaceOnUse" xlink:href="#a"/>
<radialGradient id="b" cx="1324.3" cy="1572.7" r="447.09" gradientTransform="matrix(-.0017925 .021966 .019283 .0015736 -8.1385 2.0335)" gradientUnits="userSpaceOnUse" xlink:href="#a"/>
<linearGradient id="g" x1="4148.1" x2="4152.2" y1="1345.4" y2="2279.9" gradientTransform="matrix(.027272 0 0 -.011103 -93.826 79.684)" gradientUnits="userSpaceOnUse">
<stop stop-color="#f0f0f0" stop-opacity=".218" offset="0"/>
<stop stop-color="#617583" offset="1"/>
</linearGradient>
<linearGradient id="i" x1="849.04" x2="675.12" y1="1149.3" y2="1143.7" gradientTransform="matrix(.02684 0 0 .02684 -16.891 -1.9502)" gradientUnits="userSpaceOnUse">
<stop stop-color="#f0f0f0" offset="0"/>
<stop stop-color="#617583" offset="1"/>
</linearGradient>
<linearGradient id="h" x1="907.21" x2="672.47" y1="1141.3" y2="1141" gradientTransform="matrix(-.02684 0 0 .02684 54.881 -1.9538)" gradientUnits="userSpaceOnUse">
<stop stop-color="#f0f0f0" offset="0"/>
<stop stop-color="#617583" offset="1"/>
</linearGradient>
<filter id="j" x="-.0098524" y="-.026745" width="1.0197" height="1.0535" color-interpolation-filters="sRGB">
<feGaussianBlur stdDeviation="0.14328752"/>
</filter>
</defs>
<path d="m19.494 52.25c-4.9756 0-11.104 0.30944-11.104 2.0623 0.0048 1.6325 4.1026 1.6207 7.2429 1.9712-0.01118 0.33327-0.0246 0.71384-0.06934 1.1501-0.90508 0.22881-1.5104 0.68465-1.8752 1.2171-3.7027 0.54218-7.6518 1.6159-11.467 1.5296-7.0055 5.539 39.099 7.5017 33.744 0.05737-5.0275-0.60256-8.412-1.4783-11.988-1.7688-0.24324-0.32533-0.63567-0.59317-1.2197-0.77748-0.04473-0.49565 0.01118-0.95071 0.09618-1.3562 3.4096-0.32294 7.2148-0.3447 7.275-1.8497-1.02e-4 -1.6365-5.6626-2.2368-10.638-2.2368zm-2.0126 4.1854c0.65979 0.03639 1.3349 0.05516 2.0126 0.05592 0.55653-5.93e-4 1.1116-0.01332 1.6582-0.03802-0.08276 0.27936-0.1748 0.58422-0.28663 0.92297-1.0369-0.08388-1.8858-0.15825-3.311-0.07828-0.04362-0.30766-0.06375-0.5953-0.07269-0.86225z" fill="url(#g)" filter="url(#j)" opacity=".305"/>
<path d="m36.447 3.0077c0.05927 2.4069-3.6204 0.38583-6.0221 1.1564-4.3223 1.387-4.8062 4.6288-5.3973 4.8559-1.6297 0.62616 0.71004-4.2758 4.8233-6.2871 2.282-1.1159 6.5386-2.0333 6.596 0.27489z" fill="url(#d)"/>
<path d="m2.8131 4.3958c-0.19113 1.3753 2.7902 0.96513 3.5799 1.0429 4.7794 0.47004 6.6377 4.6719 6.8929 4.7972 1.3449 0.65983-0.83787-3.796-3.6617-5.2292-3.9154-1.9871-6.5909-2.1965-6.8112-0.61084z" fill="url(#c)"/>
<path d="m15.423 13.968c1.9304 0.32745 3.2299 2.158 2.9024 4.0883-0.32745 1.9305-2.1579 3.23-4.0883 2.9026-1.9305-0.32756-3.2299-2.158-2.9024-4.0883 0.32745-1.9305 2.1579-3.23 4.0883-2.9026z" fill="url(#e)" stroke="#617583" stroke-width=".48503"/>
<path d="m24.553 11.902c3.2796 0.55638 5.4872 3.6659 4.9309 6.9455-0.55638 3.2796-3.6659 5.4872-6.9455 4.9308-3.2794-0.55627-5.4871-3.6658-4.9308-6.9454s3.6658-5.4872 6.9454-4.9309z" fill="url(#f)" stroke="#617583" stroke-width=".48503"/>
<path d="m21.523 17.534c0.55714 0.09446 0.93219 0.62286 0.83761 1.18-0.09446 0.55714-0.62273 0.93219-1.1799 0.83774-0.55727-0.09446-0.93232-0.62286-0.83774-1.18 0.09446-0.55714 0.62273-0.93219 1.18-0.83774z"/>
<path d="m15.686 17.605c0.3298 0.05592 0.55179 0.36861 0.49576 0.6983-0.05592 0.3298-0.3685 0.55168-0.6983 0.49576-0.32969-0.05592-0.55168-0.36861-0.49576-0.6983 0.05592-0.3298 0.36861-0.55168 0.6983-0.49576z"/>
<path d="m11.608 28.493c1.9526 1.1035 5.3897 0.68454 7.7068 0.77926 2.317 0.09506 4.5442 2.7052 6.7497 4.909 2.2056 2.2037 3.8075 4.591 3.1743 5.1228-0.63321 0.53177-2.1513-1.153-2.7954-1.8264-0.63567-0.66441-2.4859-2.9378-3.476-3.5994 0.223 1.0294 0.99533 3.2459 1.2155 6.6008 0.15511 2.3645-0.49622 4.8046-1.8051 5.8188-0.17592 4.8213 0.83549 7.9149 0.06936 8.0317-0.76613 0.11672-0.40905-2.0261-1.1488-7.529-1.0205 0.20231-2.7576 0.35339-4.1603 0.16159-0.27892 4.8818-0.19264 7.5015-0.71419 7.4649-0.88307-0.06205-0.30505-1.2813-0.57613-7.7354-2.0918-1.299-2.7906-5.7692-2.3805-8.4099 0.4101-2.6408 1.0915-5.2051 2.0711-6.6643-1.6664-0.11631-5.2074-1.664-5.6256-1.9527-1.7003-1.1739-3.6948-2.3491-3.0477-3.5546 0.56991-1.0618 2.1865 1.1357 4.7434 2.3829z" fill="url(#b)" opacity=".936" stroke="#617583" stroke-width=".47552"/>
<path d="m1.7767 15.068c6.1514 0.42374 11.088 5.1098 17.313 6.8129 5.9038-1.418 7.1616-4.7012 17.458-6.387-1.9106 7.9222-0.10005 16.914-0.27571 24.188-2.9944 0.17578-10.791 3.0825-17.04 4.3403-5.5008-0.7999-10.537-4.3515-16.419-4.3629 0.080476-6.5747 0.15683-15.948-1.0357-24.592z" fill="#f0f0f0" fill-rule="evenodd" stroke="#617583" stroke-linecap="round" stroke-linejoin="round" stroke-width=".6"/>
<path d="m19.089 21.881c0.32885 8.4782-0.14465 15.073 0.14192 22.142" fill="none" stroke="#617583" stroke-width=".7"/>
<g transform="matrix(.02684 0 0 .02684 -16.869 -2.0485)" fill="none" stroke="#617583">
<path d="m787.38 772.79c102.13 5.0576 263.03 115.62 504.44 200.97" stroke-dasharray="178.83529046,89.41764523" stroke-dashoffset="31.296" stroke-miterlimit="7.1" stroke-width="44.709"/>
<path d="m819.68 911.18c102.13 5.0576 216.87 84.146 458.27 169.49" stroke-dasharray="268.25293569, 89.41764523" stroke-dashoffset="84.947" stroke-linecap="square" stroke-width="44.709"/>
<path d="m817.81 1020.6c103.67 17.319 192.01 59.286 433.41 144.63" stroke-dasharray="536.50589262, 44.70882448" stroke-linecap="square" stroke-width="44.709"/>
<path d="m812.54 1113.4c93.266 16.342 159.9 38.23 248.7 76.552" stroke-dasharray="44.70882448, 89.41764896" stroke-dashoffset="13.413" stroke-linecap="square" stroke-width="44.709"/>
<path d="m807.09 1203.1c80.505 16.222 177.9 51.259 249.37 84.317" stroke-dashoffset="53.15" stroke-linecap="square" stroke-width="44.709"/>
<path d="m1046.8 1428.1c146.36 44.808 52.95 23.18 201.03 71.198" stroke-dasharray="357.67058092, 357.67058092" stroke-linecap="square" stroke-width="44.709"/>
<path d="m1046.6 1532c90.917 31.232 109.48 38.941 197.48 75.679" stroke-dashoffset="63.78" stroke-linecap="square" stroke-width="44.709"/>
<path d="m1627.3 888.23c-56.326 20.195-137.45 57.705-184.91 68.007" stroke-linecap="square" stroke-width="44.709"/>
<path d="m1635.2 1002.2c-47.433 23.697-129.21 51.063-195.27 66.947" stroke-dasharray="44.70882448, 89.41764896" stroke-dashoffset="125.18" stroke-linecap="square" stroke-width="44.709"/>
<path d="m1641.8 1121.4c-58.136 21.284-138.41 34.759-203.41 47.708" stroke-dasharray="134.12646785, 44.70882262" stroke-linecap="square" stroke-width="44.709"/>
<path d="m1889.3 1173.6c-115.61 38.084-350.08 105.62-453.64 123.49" stroke-dasharray="89.41764896, 89.41764896" stroke-dashoffset="71.534" stroke-linecap="square" stroke-width="44.709"/>
<path d="m1907.5 1272.4c-125.65 20.465-313.05 99.194-481.35 136.65" stroke-dashoffset="177.17" stroke-linecap="square" stroke-miterlimit="3" stroke-width="44.709"/>
<path d="m1913.1 1374.7c-105.2 18.851-283.26 98.835-479.72 133.95" stroke-dasharray="44.70882448, 89.41764896" stroke-dashoffset="178.84" stroke-linecap="square" stroke-width="44.709"/>
</g>
<path d="m1.3478 26.849c-0.5056 0.70892-0.33427 3.0255 0.25722 3.4831 0.43481 0.3364 2.3932-0.38382 2.3305-1.9305-0.059272-1.4604-1.947-2.4511-2.5877-1.5526z" fill="url(#i)" fill-rule="evenodd" stroke="#617583" stroke-width=".47552"/>
<path d="m36.642 26.845c0.50549 0.70903 0.33427 3.0256-0.25722 3.4831-0.43481 0.3364-2.3932-0.3837-2.3306-1.9305 0.05927-1.4604 1.9472-2.4511 2.5879-1.5526z" fill="url(#h)" fill-rule="evenodd" stroke="#617583" stroke-width=".47552"/>
<path d="m33.78 26.168c-2.4567 0.58218-3.573 0.90568-5.301 1.5957l0.01144-7.2966 5.301-1.5957z" fill="#6c8190" stroke="#6c8190" stroke-linecap="round" stroke-linejoin="round" stroke-width=".32382"/>
<path d="m28.756 28.459c-0.31021-0.12227-0.49066-0.69049-0.2772-0.69508l0.87284-7.0209s4.2538-2.0362 5.056-1.7071c-0.11722 3.2215-0.08084 4.2223-0.24538 7.7806 0 0-0.65313 0.201-5.4062 1.6424z" fill="#6c8190" stroke="#6c8190" stroke-linecap="round" stroke-linejoin="round" stroke-width=".30885"/>
<path d="m33.78 26.168c-2.0746 0.52636-3.4816 0.97169-5.301 1.5957l0.01171-7.2966c2.0521-1.0056 3.939-1.7849 5.5449-1.8702l-0.12306 3.383z" fill="#b9c1c8" stroke="#6c8190" stroke-linecap="round" stroke-linejoin="round" stroke-width=".48572"/>
<path d="m29.793 27.496-0.0025 1.5827 0.53862-0.80331 0.52157 0.48416 0.0025-1.5826z" fill="#b9c1c8" stroke="#6c8190" stroke-linecap="round" stroke-linejoin="round" stroke-width=".24286"/>
<path d="m31.138 21.15-0.28376 0.93911c0.18843-0.11302 0.37683-0.16965 0.56511-0.1702zm1.6468 0.1389-0.84948 0.67372c0.17579 0.03098 0.30865 0.11492 0.39889 0.25136zm-3.2955 0.99235 0.44841 0.65406c0.09071-0.1909 0.22438-0.35476 0.40039-0.49186zm1.6469-0.14517c-0.69981 0.21081-1.2701 0.91298-1.2712 1.5638-0.0012 0.65088 0.5676 1.0103 1.2674 0.79964 0.6998-0.21052 1.2714-0.91334 1.2725-1.5642 0.0012-0.65086-0.56892-1.0099-1.2687-0.79926zm-2.34e-4 0.28953c0.5319-0.16012 0.96001 0.10814 0.95923 0.60304-4.97e-4 0.49469-0.43017 1.0216-0.96206 1.1817-0.5319 0.16015-0.95904-0.10893-0.95826-0.60367 4.95e-4 -0.49467 0.42918-1.021 0.96109-1.1811zm-0.0025 0.54839a1.0466 1.4159 32.177 0 0 -0.79163 0.58257 1.0466 1.4159 32.177 0 0 0.79054 0.10624 1.0466 1.4159 32.177 0 0 0.79655 -0.58402 1.0466 1.4159 32.177 0 0 -0.79546 -0.10457zm0.0017 0.04977a0.25973 0.35791 47.099 0 1 0.3167 0.19771l-8.8e-5 8.72e-4a0.25973 0.35791 47.099 0 1 -0.31663 0.38924 0.25973 0.35791 47.099 0 1 -0.31603 -0.19826 0.25973 0.35791 47.099 0 1 0.31597 -0.38963zm-1.411 0.45586-0.91875 0.5394 0.91791-0.01364c-0.06021-0.15686-0.05983-0.33223 4.94e-4 -0.52558zm2.8239-0.85007c0.06021 0.15687 0.05979 0.33223-4.96e-4 0.52558l0.91875-0.53938zm-2.6117 1.7911-0.45092 0.9254 0.84981-0.67384c-0.17579-0.03098-0.30865-0.1152-0.39889-0.25163zm2.3962-0.72133c-0.09069 0.19091-0.22405 0.35496-0.40008 0.49208l0.84859 0.16232zm-1.4817 1.0162 0.28136 0.76899 0.28376-0.93909c-0.18843 0.11301-0.37684 0.16966-0.5651 0.1702z" fill="#6c8190" style="paint-order:normal"/>
<path d="m4.4165 32.068c1.8494 0.16577 3.1664 0.72092 5.0503 1.5022l-0.085822 5.4996c-1.8515-0.75322-3.0234-1.2252-4.9118-1.3032l-0.1045-2.5031z" fill="none" stroke="#6c8190" stroke-linecap="round" stroke-linejoin="round" stroke-width=".43321" style="paint-order:normal"/>
<path d="m6.8968 32.616c0.18342 0.51761 0.3161 1.1108 0.2891 1.6259-0.10472 1.9167-1.0709 3.4794-2.8751 3.0208l0.15844 0.50393c1.5255-0.01737 2.6094 0.37454 4.7593 1.2574l0.23831-5.4538zm1.2766 0.87158 0.38543 1.606-1.12e-5 1.89e-4 -1.89e-4 -5e-5 -0.933-0.23732c-6.15e-5 -2e-6 -1.275e-4 -5e-6 -1.879e-4 -3.8e-5l1.12e-5 -2.11e-4zm-0.55341 1.4687c6.37e-5 2.3e-5 1.252e-4 2.6e-5 1.89e-4 6.1e-5l0.93302 0.23706c6.15e-5 3e-6 1.23e-4 5e-6 1.857e-4 5.9e-5l-0.10289 1.8832 9.975e-4 8.28e-4 -0.054117 0.9904c-1.79e-5 2.18e-4 -3.02e-5 4.56e-4 -4.03e-5 7.66e-4l-9.975e-4 -8.28e-4 -0.93337-0.23732-5.513e-4 3.99e-4 2.12e-5 -4.28e-4 0.054139-0.99101 5.536e-4 -4.09e-4zm0.4586 0.26661c-0.12886-0.0329-0.23941 0.05165-0.24689 0.18866-0.00749 0.13678 0.090933 0.27445 0.2198 0.3072 0.12887 0.0329 0.2394-0.05165 0.24689-0.18867 0.00749-0.13678-0.090933-0.27445-0.2198-0.30722zm-0.054173 0.99159c-0.12887-0.0328-0.23941 0.05165-0.24689 0.18867-0.00749 0.13678 0.090933 0.27447 0.2198 0.30721 0.12887 0.0329 0.23941-0.05165 0.24689-0.18866 0.00749-0.13679-0.090933-0.27444-0.2198-0.3072zm-0.60626 0.70062-0.048749 0.89224c-0.0038 0.02708 0.014337 0.05573 0.040093 0.06472l-0.4331 0.20378 0.046937-0.85917zm1.1209 0.28552 0.35099 0.49058-0.051768 0.94745-0.39445-0.50381c0.026259 0.0034 0.047183-0.01455 0.04649-0.04252z" fill="#6c8190" style="paint-order:normal"/>
<ellipse transform="rotate(10.242)" cx="12.204" cy="32.717" rx=".22021" ry=".34744" fill="none" stroke="#6c8190" stroke-linecap="round" stroke-linejoin="round" stroke-width=".13277" style="paint-order:normal"/>
<ellipse transform="rotate(44.032)" cx="28.396" cy="22.29" rx=".22021" ry=".34744" fill="none" stroke="#6c8190" stroke-linecap="round" stroke-linejoin="round" stroke-width=".13277" style="paint-order:normal"/>
<ellipse transform="rotate(30.691)" cx="23.691" cy="27.82" rx=".22021" ry=".34744" fill="none" stroke="#6c8190" stroke-linecap="round" stroke-linejoin="round" stroke-width=".13277" style="paint-order:normal"/>
<ellipse transform="matrix(.99447 -.10507 .023803 .99972 0 0)" cx="4.5229" cy="33.669" rx=".38324" ry=".34917" fill="none" stroke="#6c8190" stroke-linecap="round" stroke-linejoin="round" stroke-width=".13299" style="paint-order:normal"/>
<ellipse transform="matrix(.47573 .87959 -.87111 .49109 0 0)" cx="35.004" cy="12.606" rx=".085445" ry=".13515" fill="none" stroke="#6c8190" stroke-linecap="round" stroke-linejoin="round" stroke-width=".13278" style="paint-order:normal"/>
<path d="m15.369 31.537c-0.04209-0.02986-0.08929-0.04666-0.13584-0.04769l-0.08517-9.02e-4c-0.12428-0.0022-0.19741 0.11362-0.1639 0.25974l0.9418 3.9561 0.4346 0.16743-0.84271-4.1135c-0.02091-0.09143-0.07835-0.17234-0.14884-0.22075z" fill="#6c8190" stroke="#6c8190" stroke-width=".12139"/>
<path d="m15.538 31.617 0.19597 0.85572-0.64115-0.01197-0.04565-0.19931c-0.70016-0.26979-0.34426 0.88817-0.26936 1.2398l-0.44285 0.2035c-0.28448-0.71862-0.80071-2.3612-0.66884-2.6882l0.71726 0.20676c0.14995 0.34592 0.4258 0.59226 0.5455 0.5235l-0.03225-0.1408 0.64115 0.01198" fill="#b9c1c8" stroke="#6c8190" stroke-linecap="round" stroke-linejoin="round" stroke-width=".18208"/>
<path d="m13.666 31.016c-0.13186 0.32705 0.38436 1.9696 0.66884 2.6882l0.23859-0.10972c-0.27222-0.71755-0.6935-2.0796-0.6411-2.5021z" fill="#6c8190"/>
<path d="m12.803 34.548 0.13045-4.2925c1.3184 0.22069 2.7399 0.86786 4.2055 1.6373l-0.1089 4.4543c-2.8776-1.3122-3.087-1.3395-4.1085-1.5834z" fill="none" stroke="#6c8190" stroke-linecap="round" stroke-linejoin="round" stroke-width=".37508"/>
<path d="m34.503 37.627c-3.6505 0.93233-9.3365 3.107-12.771 3.5328" fill="none" stroke="#617583" stroke-dasharray="4.80000019,2.4000001" stroke-dashoffset="1.32" stroke-linecap="square" stroke-width="1.2"/>
</svg>