<?xml version="1.0" encoding="UTF-8"?>
<svg version="1.1" viewBox="0 0 75 65" xmlns="http://www.w3.org/2000/svg" xmlns:cc="http://creativecommons.org/ns#" xmlns:dc="http://purl.org/dc/elements/1.1/" xmlns:rdf="http://www.w3.org/1999/02/22-rdf-syntax-ns#" xmlns:xlink="http://www.w3.org/1999/xlink">
<metadata>
<rdf:RDF>
<cc:Work rdf:about="">
<dc:format>image/svg+xml</dc:format>
<dc:type rdf:resource="http://purl.org/dc/dcmitype/StillImage"/>
<dc:title/>
</cc:Work>
</rdf:RDF>
</metadata>
<defs>
<linearGradient id="a">
<stop stop-color="#fff" offset="0"/>
<stop stop-color="#617583" offset="1"/>
</linearGradient>
<radialGradient id="f" cx="1232" cy="1025.5" r="220" gradientTransform="matrix(.034622 .0092768 -.0096624 .036061 -1.8741 -28.614)" gradientUnits="userSpaceOnUse" xlink:href="#a"/>
<radialGradient id="e" cx="935.84" cy="1101.9" r="129.5" gradientTransform="matrix(.035813 0 0 .035813 -10.158 -17.955)" gradientUnits="userSpaceOnUse" xlink:href="#a"/>
<radialGradient id="d" cx="1667" cy="387.7" r="202.47" gradientTransform="matrix(.001318 .044108 -.021152 .000632 38.772 -73.61)" gradientUnits="userSpaceOnUse" xlink:href="#a"/>
<radialGradient id="c" cx="532.69" cy="553.3" r="221.2" gradientTransform="matrix(.049365 -.013744 .0032129 .01154 -17.624 15.485)" gradientUnits="userSpaceOnUse" xlink:href="#a"/>
<radialGradient id="b" cx="1324.3" cy="1572.7" r="447.09" gradientTransform="matrix(-.002773 .020651 -.018129 -.0024344 61.289 10.437)" gradientUnits="userSpaceOnUse" xlink:href="#a"/>
<linearGradient id="g" x1="937.75" x2="955.18" y1="2603.2" y2="2141.4" gradientTransform="matrix(.025376 0 0 .025376 3.6288 -1.1925)" gradientUnits="userSpaceOnUse">
<stop stop-color="#f0f0f0" offset="0"/>
<stop stop-color="#617583" offset="1"/>
</linearGradient>
<clipPath id="k">
<path d="m280.8 12.137c-5.035-1.2848-15.247 4.5727-19.926 9.1656-5.6167 5.5124-8.7755 18.861-8.9259 27.245-0.15929 8.8834 7.1997 16.59 5.753 29.989-0.71417 6.6148-10.545 7.9648-16.505 8.5343-11.248 1.0749-21.777 0.37172-29.451-0.57794-2.1056-2.5214-4.6521-4.5216-7.762-5.7999-6.8957-2.8343-13.759-2.3553-20.374 0.34196-7.2703-0.42791-15.495-0.24228-21.265 2.0162-19.021 7.4448-43.247 33.132-61.608 42.368-5.2195 2.6256-8.0464 1.6688-13.304 4.2012-3.7238 1.7938-8.6889 3.7407-9.7301 8.116-1.634 6.8663 1.3503 17.864 7.5354 19.75 9.6611 2.9461 18.142-11.854 25.983-18.644 12.813-11.096 28.134-23.442 43.247-31.833-10.593 14.388-18.708 30.836-22.513 40.471-8.7173 22.079-11.316 57.075 18.959 67.439 30.275 10.364 47.39-7.9243 56.107-30.003 5.9576-15.089 15.727-52.723 12.175-78.804 15.068-2.2698 34.734-5.7487 43.516-9.6158 17.557-7.731 1.8836-44.917 5.9851-51.304 7.6499-11.913 15.636-18.116 15.014-29.08-0.13186-2.3268-1.2334-3.5487-2.9118-3.977z" fill="#6c8190"/>
</clipPath>
<filter id="i" x="-.37017" y="-.41777" width="1.7403" height="1.8355" color-interpolation-filters="sRGB">
<feGaussianBlur stdDeviation="10.138619"/>
</filter>
<linearGradient id="h" x1="9.0587" x2="17.089" y1="49.668" y2="44.103" gradientUnits="userSpaceOnUse">
<stop stop-color="#fff" offset="0"/>
<stop stop-color="#d4d6d8" offset=".48485"/>
<stop stop-color="#fff" offset="1"/>
</linearGradient>
<filter id="j" x="-.012782" y="-.030419" width="1.0256" height="1.0608" color-interpolation-filters="sRGB">
<feGaussianBlur stdDeviation="0.1712669"/>
</filter>
</defs>
<path d="m27.112 51.195c-4.6319 0-8.3868 0.94673-8.3868 2.1144 0 0.78147 1.7127 1.4989 4.4491 1.8658 0.48404 0.56757 1.0732 1.3208 1.5282 2.307-0.56324 0.2896-1.441 1.3383-0.72184 2.7528 0.52623 1.0352 1.0136 1.9128 3.0432 3.2404-1.0957 0.04441-2.589-0.72216-3.7754-1.3408-6.624-3.5155-3.878-0.67457 0.67056 1.5672 2.2004 1.0898 5.1563 1.1086 6.9803 0.90602 3.5598-0.35611 3.6454-0.52761 5.2089-0.10964l1.869-0.52327c-1.4825-0.78887-1.9139-0.6935-4.0841-0.81657 0.90729-1.1742 0.65766-2.644 0.62911-2.9996-0.11186-1.3944-1.6562-2.9517-3.2792-3.1428-0.07401-0.73252-0.0867-1.3482-0.1015-1.8541 2.6836-0.3707 4.3537-1.0804 4.3574-1.8519 0-1.1677-3.7549-2.1144-8.3868-2.1144zm-21.294 0.95403c0.332 5.5264 2.466 3.9733 6.375 5.8692 8.3061 0.97725 11.343 1.9493 12.917-2.658l-9.059-1.4515zm23.552 3.1966c0 0.38994-0.01163 0.84544-0.0793 1.3744-1.0241-0.10045-1.9303-0.03806-2.9723 0.25355-0.50128-0.64053-0.8872-1.1722-1.2077-1.6134 0.65438 0.04124 1.3261 0.06238 2.0008 0.06344 0.76329 0 1.523-0.02643 2.258-0.07824z" fill="url(#g)" filter="url(#j)" opacity=".356"/>
<path d="m35.613 0.98731c1.7842 1.4133-1.9111 2.863-2.8051 5.0737-1.6088 3.9787 0.45285 6.2924 0.2601 6.8592-0.53162 1.5626-2.6758-3.1037-1.647-7.3087 0.57075-2.3327 2.4808-5.9796 4.192-4.6242z" fill="url(#d)"/>
<path d="m9.6132 16.678c0.53469 1.199 2.7214-0.62139 3.3938-0.95403 4.0696-2.0135 7.6622 0.42811 7.9296 0.40083 1.409-0.14327-2.571-2.6263-5.5533-2.3637-4.1352 0.36425-6.3865 1.5344-5.7702 2.9169z" fill="url(#c)"/>
<path d="m24.033 19.48c1.8149 0 3.2862 1.4713 3.2862 3.2862s-1.4713 3.2862-3.2862 3.2862c-1.8149 0-3.2862-1.4713-3.2862-3.2862s1.4713-3.2862 3.2862-3.2862z" fill="url(#e)" stroke="#617583" stroke-width=".44957"/>
<path d="m32.027 16.444c3.0832 0 5.5827 2.4995 5.5827 5.5827 0 3.0833-2.4995 5.5827-5.5827 5.5827-3.0833 0-5.5827-2.4994-5.5827-5.5827 0-3.0832 2.4994-5.5827 5.5827-5.5827z" fill="url(#f)" stroke="#617583" stroke-width=".44957"/>
<path d="m32.877 21.519c0.4555 0 0.82472 0.36932 0.82472 0.82472 0 0.4555-0.36922 0.82472-0.82472 0.82472s-0.82472-0.36922-0.82472-0.82472c0-0.45539 0.36922-0.82472 0.82472-0.82472z"/>
<path d="m24.744 22.118c0.31614 0 0.57254 0.2563 0.57254 0.57254 0 0.31614-0.2564 0.57254-0.57254 0.57254-0.31625 0-0.57254-0.2564-0.57254-0.57254 0-0.31625 0.2563-0.57254 0.57254-0.57254z"/>
<path d="m58.526 33.84c-8.9502-7.8998-8.8317-21.079 0-28.985-5.5531 9.8998-5.3936 19.19 0 28.985z" fill="none" stroke="#617583" stroke-linecap="round" stroke-linejoin="round" stroke-width=".45003"/>
<path d="m67.274 30.196c-8.5501-6.6251-8.6036-15.589 0-21.697-5.1216 7.2682-5.1122 13.89 0 21.697z" fill="none" stroke="#617583" stroke-linecap="round" stroke-linejoin="round" stroke-width=".44957"/>
<path d="m73.986 25.562c-5.9264-3.154-5.7282-9.9824 0.04758-12.712-3.5828 4.666-3.4066 7.8111-0.04758 12.712z" fill="none" stroke="#617583" stroke-linecap="round" stroke-linejoin="round" stroke-width=".44957"/>
<path d="m16.741 35.597-4.55 10.184h-11.154l7.0229 10.722c3.3614-0.15251 6.7123-0.2634 9.9054 0.25711l1.8931-1.2275c0.16369-1.0344 1.8145-4.7198 3.9368-9.2457z" fill="#6c8190" stroke="#6c8190" stroke-linejoin="round" stroke-width=".596" style="paint-order:normal"/>
<path d="m16.673 36.528-4.2759 9.5708h-10.527l6.5152 10.046c3.1153-0.3965 6.234-0.76852 9.5157 0l1.4854-1.06c0.95428-2.9409 2.3433-5.737 3.8017-8.5101z" fill="#a7b1ba" stroke="#6c8190" stroke-width=".53671px" style="paint-order:normal"/>
<path d="m15.625 36.528c-2.3396 2.8089-3.5537 5.6838-3.8481 8.613-3.3685-0.9286-6.6581-0.75226-9.9066 0l6.5149 10.047c3.2519-0.75513 6.5351-1.0401 9.9066 0 0.6473-2.9688 1.6471-5.8831 3.8477-8.6128z" fill="url(#h)" stroke="#6c8190" stroke-linecap="round" stroke-linejoin="round" stroke-width=".255" style="paint-order:normal"/>
<path d="m1.8702 46.099 1.575e-4 -0.95783 6.5149 10.047 1.649e-4 0.95735" fill="#b9c1c8" stroke="#6c8190" stroke-linecap="round" stroke-linejoin="round" stroke-width=".25527px"/>
<path d="m11.777 45.141 6.5149 10.047" fill="none" stroke="#6c8190" stroke-width=".25527px"/>
<path d="m16.673 36.528h-1.0484l6.5145 10.047h1.0486" fill="#b9c1c8" stroke="#6c8190" stroke-linecap="round" stroke-linejoin="round" stroke-width=".25527px"/>
<path d="m36.05 30.155c-1.5513 0.87885-1.6361 0.51809-5.1679-0.2305-1.4299-0.2361-4.7421-0.38635-6.9251 1.9048-1.8114 1.9011-7.4112 7.9939-6.0909 8.4221 0.56071 0.18186 0.40244 0.08375 0.9547 0.0013 0.95261-0.14219 2.8169-3.3008 4.471-5.1285 1.177-1.3006 2.0418-2.0099 3.461-2.5817-2.0137 2.7911-2.2125 4.3991-2.7346 6.5756-0.71349 2.9741 0.15733 5.1787 0.71613 5.7876-1.1652 5.3535-3.2219 7.4537-2.064 7.9491 1.4489 0.61991 1.5332-1.0984 3.6677-6.8799 1.0338 0.61209 1.9328 0.7451 2.9488 0.5331 0.3154 5.2372-0.52095 7.0784 0.9848 6.9853 1.1202-0.06873 0.7101-2.5188 0.95181-7.6064 1.6101-0.40178 3.1422-3.6759 3.2532-6.6077 0.02855-0.74774 0.27596-3.8379-0.62414-6.3065 2.1531-0.25883 2.8658-0.43784 4.0519-1.7168 1.9765-2.131 0.71148-4.7084 1.7353-6.2891 1.0238-1.5807 1.479-2.2471 0.47791-2.8095-0.89524-0.50287-1.6742 0.75662-2.247 1.8938-1.048 2.0805 0.31508 4.8941-1.8204 6.1039z" fill="url(#b)" stroke="#617583" stroke-linecap="round" stroke-linejoin="round" stroke-width=".44958"/>
<path transform="matrix(.12421 -.020877 .017431 .11168 2.4814 84.074)" d="m123.54 91.495c-2.888 2.4786-25.574 28.916-24.85 33.378 1.0228 6.3021 26.414-17.678 39.905-27.131 24.587-17.229 31.132-11.307 32.875-17.023-4.8031-3.6625-40.945 4.1567-47.929 10.776z" clip-path="url(#k)" fill="#eef2f4" filter="url(#i)" style="paint-order:normal"/>
</svg>
